<svg width="2660" height="1943" viewBox="0 0 2660 1943" fill="none" xmlns="http://www.w3.org/2000/svg">
<g filter="url(#filter0_f_19_2)">
<path d="M1531.25 846.475C1171.3 646.594 807.866 268.289 661.253 250.974C398.753 219.974 437.141 937.176 714.753 1193.47C975.253 1433.97 2783.48 1680.18 2339.75 1193.47C2103.68 934.536 1837.59 1016.58 1531.25 846.475Z" fill="#280075"/>
</g>
<g filter="url(#filter1_f_19_2)">
<path d="M1347.25 1015.47C987.302 815.594 623.866 437.289 477.253 419.974C214.753 388.974 253.141 1106.18 530.753 1362.47C791.253 1602.97 2599.48 1849.18 2155.75 1362.47C1919.68 1103.54 1653.59 1185.58 1347.25 1015.47Z" fill="#CF00A3"/>
</g>
<g filter="url(#filter2_f_19_2)">
<path d="M1487.46 1380.48C1567.28 1295.3 1082.98 740.445 774.221 534.415C465.458 328.384 489.652 813.593 749.594 1060.43C965.95 1265.87 1407.64 1465.67 1487.46 1380.48Z" fill="#FF8993"/>
<path d="M1487.46 1380.48C1567.28 1295.3 1082.98 740.445 774.221 534.415C465.458 328.384 489.652 813.593 749.594 1060.43C965.95 1265.87 1407.64 1465.67 1487.46 1380.48Z" stroke="#FF1D74" stroke-width="40"/>
</g>
<defs>
<filter id="filter0_f_19_2" x="234" y="0" width="2425.51" height="1723.59" filterUnits="userSpaceOnUse" color-interpolation-filters="sRGB">
<feFlood flood-opacity="0" result="BackgroundImageFix"/>
<feBlend mode="normal" in="SourceGraphic" in2="BackgroundImageFix" result="shape"/>
<feGaussianBlur stdDeviation="125" result="effect1_foregroundBlur_19_2"/>
</filter>
<filter id="filter1_f_19_2" x="0" y="119" width="2525.51" height="1823.59" filterUnits="userSpaceOnUse" color-interpolation-filters="sRGB">
<feFlood flood-opacity="0" result="BackgroundImageFix"/>
<feBlend mode="normal" in="SourceGraphic" in2="BackgroundImageFix" result="shape"/>
<feGaussianBlur stdDeviation="150" result="effect1_foregroundBlur_19_2"/>
</filter>
<filter id="filter2_f_19_2" x="378.643" y="314.653" width="1287.56" height="1255.98" filterUnits="userSpaceOnUse" color-interpolation-filters="sRGB">
<feFlood flood-opacity="0" result="BackgroundImageFix"/>
<feBlend mode="normal" in="SourceGraphic" in2="BackgroundImageFix" result="shape"/>
<feGaussianBlur stdDeviation="75" result="effect1_foregroundBlur_19_2"/>
</filter>
</defs>
</svg>
